<mxfile host="app.diagrams.net" modified="2022-01-12T15:45:12.544Z" agent="5.0 (X11; Linux x86_64) AppleWebKit/537.36 (KHTML, like Gecko) Chrome/95.0.4638.69 Safari/537.36" etag="92jKgL2yOa9CyCCIOCMb" version="16.2.4" type="github">
  <diagram name="Page-1" id="929967ad-93f9-6ef4-fab6-5d389245f69c">
    <mxGraphModel dx="4929" dy="790" grid="1" gridSize="10" guides="1" tooltips="1" connect="1" arrows="1" fold="1" page="1" pageScale="1.5" pageWidth="1169" pageHeight="826" background="none" math="0" shadow="0">
      <root>
        <mxCell id="0" style=";html=1;" />
        <mxCell id="1" style=";html=1;" parent="0" />
        <mxCell id="9g8wFQ5CI78rzDATGCAP-6" value="&lt;abstract&gt;&#xa;IPAddress" style="swimlane;fontStyle=3;align=center;verticalAlign=bottom;childLayout=stackLayout;horizontal=1;startSize=40;horizontalStack=0;resizeParent=1;resizeParentMax=0;resizeLast=0;collapsible=1;marginBottom=0;" parent="1" vertex="1">
          <mxGeometry x="780" y="228" width="280" height="254" as="geometry">
            <mxRectangle x="780" y="240" width="100" height="26" as="alternateBounds" />
          </mxGeometry>
        </mxCell>
        <mxCell id="9g8wFQ5CI78rzDATGCAP-7" value="# family: sa_family_t const&#xa;# representation: std::string&#xa;# cStyle: void *&#xa;" style="text;strokeColor=none;fillColor=none;align=left;verticalAlign=top;spacingLeft=4;spacingRight=4;overflow=hidden;rotatable=0;points=[[0,0.5],[1,0.5]];portConstraint=eastwest;" parent="9g8wFQ5CI78rzDATGCAP-6" vertex="1">
          <mxGeometry y="40" width="280" height="54" as="geometry" />
        </mxCell>
        <mxCell id="9g8wFQ5CI78rzDATGCAP-8" value="" style="line;strokeWidth=1;fillColor=none;align=left;verticalAlign=middle;spacingTop=-1;spacingLeft=3;spacingRight=3;rotatable=0;labelPosition=right;points=[];portConstraint=eastwest;" parent="9g8wFQ5CI78rzDATGCAP-6" vertex="1">
          <mxGeometry y="94" width="280" height="8" as="geometry" />
        </mxCell>
        <mxCell id="9g8wFQ5CI78rzDATGCAP-9" value="+ IPAddress()&#xa;+ IPAddress(std::string const &amp;, sa_family_t type)&#xa;+ IPAddress(IPAddress const &amp;)&#xa;+ ~IPAddress()&#xa;&#xa;+ getFamily(): sa_family_t&#xa;+ getRepresentation(): std::string&#xa;+ getCStyle(): void * const&#xa;&#xa;- operator=(IPAddress const &amp;): IPAddress &amp;" style="text;strokeColor=none;fillColor=none;align=left;verticalAlign=top;spacingLeft=4;spacingRight=4;overflow=hidden;rotatable=0;points=[[0,0.5],[1,0.5]];portConstraint=eastwest;fontStyle=0" parent="9g8wFQ5CI78rzDATGCAP-6" vertex="1">
          <mxGeometry y="102" width="280" height="152" as="geometry" />
        </mxCell>
        <mxCell id="9g8wFQ5CI78rzDATGCAP-27" value="" style="endArrow=block;endSize=16;endFill=0;html=1;rounded=0;exitX=0.5;exitY=0;exitDx=0;exitDy=0;entryX=0;entryY=0.5;entryDx=0;entryDy=0;" parent="1" target="9g8wFQ5CI78rzDATGCAP-9" edge="1">
          <mxGeometry width="160" relative="1" as="geometry">
            <mxPoint x="620" y="525" as="sourcePoint" />
            <mxPoint x="750" y="450" as="targetPoint" />
            <Array as="points">
              <mxPoint x="620" y="419" />
              <mxPoint x="620" y="406" />
            </Array>
          </mxGeometry>
        </mxCell>
        <mxCell id="9g8wFQ5CI78rzDATGCAP-28" value="" style="endArrow=block;endSize=16;endFill=0;html=1;rounded=0;entryX=1;entryY=0.5;entryDx=0;entryDy=0;exitX=0.5;exitY=0;exitDx=0;exitDy=0;" parent="1" target="9g8wFQ5CI78rzDATGCAP-9" edge="1">
          <mxGeometry width="160" relative="1" as="geometry">
            <mxPoint x="1220" y="525" as="sourcePoint" />
            <mxPoint x="1380" y="419" as="targetPoint" />
            <Array as="points">
              <mxPoint x="1220" y="406" />
            </Array>
          </mxGeometry>
        </mxCell>
        <mxCell id="wqd82JeTupFohGKB9hLJ-1" value="AddressInfo" style="swimlane;fontStyle=1;align=center;verticalAlign=top;childLayout=stackLayout;horizontal=1;startSize=26;horizontalStack=0;resizeParent=1;resizeParentMax=0;resizeLast=0;collapsible=1;marginBottom=0;" parent="1" vertex="1">
          <mxGeometry x="40" y="240" width="400" height="250" as="geometry" />
        </mxCell>
        <mxCell id="wqd82JeTupFohGKB9hLJ-2" value="+ ipAddress: IPAddress *&#xa;+ sockType: int&#xa;+ protocol: int&#xa;+ service: in_port_t&#xa;+ flags: int" style="text;strokeColor=none;fillColor=none;align=left;verticalAlign=top;spacingLeft=4;spacingRight=4;overflow=hidden;rotatable=0;points=[[0,0.5],[1,0.5]];portConstraint=eastwest;direction=south;" parent="wqd82JeTupFohGKB9hLJ-1" vertex="1">
          <mxGeometry y="26" width="400" height="84" as="geometry" />
        </mxCell>
        <mxCell id="wqd82JeTupFohGKB9hLJ-3" value="" style="line;strokeWidth=1;fillColor=none;align=left;verticalAlign=middle;spacingTop=-1;spacingLeft=3;spacingRight=3;rotatable=0;labelPosition=right;points=[];portConstraint=eastwest;" parent="wqd82JeTupFohGKB9hLJ-1" vertex="1">
          <mxGeometry y="110" width="400" height="8" as="geometry" />
        </mxCell>
        <mxCell id="wqd82JeTupFohGKB9hLJ-4" value="+ AddressInfo()&#xa;+ AddressInfo(char const *, char const *, AddressInfo const &amp;)&#xa;+ AddressInfo(struct sockaddr *address);&#xa;+ AddressInfo(int sockType, int protocol, int flags)&#xa;+ AddressInfo(AddressInfo const &amp;)&#xa;+ ~AddressInfo()&#xa;&#xa;+ operator=(AddressInfo const &amp;)" style="text;strokeColor=none;fillColor=none;align=left;verticalAlign=top;spacingLeft=4;spacingRight=4;overflow=hidden;rotatable=0;points=[[0,0.5],[1,0.5]];portConstraint=eastwest;fontStyle=0" parent="wqd82JeTupFohGKB9hLJ-1" vertex="1">
          <mxGeometry y="118" width="400" height="132" as="geometry" />
        </mxCell>
        <mxCell id="wqd82JeTupFohGKB9hLJ-8" value="" style="endArrow=diamondThin;endFill=1;endSize=24;html=1;rounded=0;" parent="1" edge="1">
          <mxGeometry width="160" relative="1" as="geometry">
            <mxPoint x="780" y="338" as="sourcePoint" />
            <mxPoint x="440" y="338" as="targetPoint" />
            <Array as="points" />
          </mxGeometry>
        </mxCell>
        <mxCell id="xDVPMbtAb4q54fRRfa8R-3" value="IPv4Address" style="swimlane;fontStyle=1;align=center;verticalAlign=top;childLayout=stackLayout;horizontal=1;startSize=26;horizontalStack=0;resizeParent=1;resizeParentMax=0;resizeLast=0;collapsible=1;marginBottom=0;" parent="1" vertex="1">
          <mxGeometry x="480" y="525" width="280" height="200" as="geometry" />
        </mxCell>
        <mxCell id="xDVPMbtAb4q54fRRfa8R-4" value="- address: struct in_addr" style="text;strokeColor=none;fillColor=none;align=left;verticalAlign=top;spacingLeft=4;spacingRight=4;overflow=hidden;rotatable=0;points=[[0,0.5],[1,0.5]];portConstraint=eastwest;" parent="xDVPMbtAb4q54fRRfa8R-3" vertex="1">
          <mxGeometry y="26" width="280" height="26" as="geometry" />
        </mxCell>
        <mxCell id="xDVPMbtAb4q54fRRfa8R-5" value="" style="line;strokeWidth=1;fillColor=none;align=left;verticalAlign=middle;spacingTop=-1;spacingLeft=3;spacingRight=3;rotatable=0;labelPosition=right;points=[];portConstraint=eastwest;" parent="xDVPMbtAb4q54fRRfa8R-3" vertex="1">
          <mxGeometry y="52" width="280" height="8" as="geometry" />
        </mxCell>
        <mxCell id="xDVPMbtAb4q54fRRfa8R-6" value="- IPv4Address()&#xa;+ IPv4Address(std::string const &amp;)&#xa;+ IPv4Address(struct in_addr address)&#xa;+ IPv4Address(IPv4Address &amp;)&#xa;+ ~IPv4Address()&#xa;&#xa;+ clone(): IPAddress *&#xa;&#xa;+ operator=(IPv4Address const &amp;): IPv4Address &amp;&#xa;" style="text;strokeColor=none;fillColor=none;align=left;verticalAlign=top;spacingLeft=4;spacingRight=4;overflow=hidden;rotatable=0;points=[[0,0.5],[1,0.5]];portConstraint=eastwest;" parent="xDVPMbtAb4q54fRRfa8R-3" vertex="1">
          <mxGeometry y="60" width="280" height="140" as="geometry" />
        </mxCell>
        <mxCell id="xDVPMbtAb4q54fRRfa8R-7" value="IPv6Address" style="swimlane;fontStyle=1;align=center;verticalAlign=top;childLayout=stackLayout;horizontal=1;startSize=26;horizontalStack=0;resizeParent=1;resizeParentMax=0;resizeLast=0;collapsible=1;marginBottom=0;" parent="1" vertex="1">
          <mxGeometry x="1080" y="525" width="280" height="200" as="geometry" />
        </mxCell>
        <mxCell id="xDVPMbtAb4q54fRRfa8R-8" value="- address: struct in6_addr" style="text;strokeColor=none;fillColor=none;align=left;verticalAlign=top;spacingLeft=4;spacingRight=4;overflow=hidden;rotatable=0;points=[[0,0.5],[1,0.5]];portConstraint=eastwest;" parent="xDVPMbtAb4q54fRRfa8R-7" vertex="1">
          <mxGeometry y="26" width="280" height="26" as="geometry" />
        </mxCell>
        <mxCell id="xDVPMbtAb4q54fRRfa8R-9" value="" style="line;strokeWidth=1;fillColor=none;align=left;verticalAlign=middle;spacingTop=-1;spacingLeft=3;spacingRight=3;rotatable=0;labelPosition=right;points=[];portConstraint=eastwest;" parent="xDVPMbtAb4q54fRRfa8R-7" vertex="1">
          <mxGeometry y="52" width="280" height="8" as="geometry" />
        </mxCell>
        <mxCell id="xDVPMbtAb4q54fRRfa8R-10" value="- IPv6Address()&#xa;+ IPv6Address(std::string const &amp;)&#xa;+ IPv6Address(struct in6_addr address)&#xa;+ IPv6Address(IPv4Address &amp;)&#xa;+ ~IPv6Address()&#xa;&#xa;+ clone(): IPAddress *&#xa;&#xa;+ operator=(IPv4Address const &amp;): IPv4Address &amp;&#xa;" style="text;strokeColor=none;fillColor=none;align=left;verticalAlign=top;spacingLeft=4;spacingRight=4;overflow=hidden;rotatable=0;points=[[0,0.5],[1,0.5]];portConstraint=eastwest;" parent="xDVPMbtAb4q54fRRfa8R-7" vertex="1">
          <mxGeometry y="60" width="280" height="140" as="geometry" />
        </mxCell>
        <mxCell id="j3VYzS4IDnfipmHzvKG--1" value="Socket" style="swimlane;fontStyle=1;align=center;verticalAlign=top;childLayout=stackLayout;horizontal=1;startSize=26;horizontalStack=0;resizeParent=1;resizeParentMax=0;resizeLast=0;collapsible=1;marginBottom=0;" parent="1" vertex="1">
          <mxGeometry x="-490" y="240" width="400" height="450" as="geometry" />
        </mxCell>
        <mxCell id="j3VYzS4IDnfipmHzvKG--2" value="- infos: AddressInfo const *&#xa;- filedesc: int&#xa;- isBlocking: bool&#xa;- isReusingAddress: bool" style="text;strokeColor=none;fillColor=none;align=left;verticalAlign=top;spacingLeft=4;spacingRight=4;overflow=hidden;rotatable=0;points=[[0,0.5],[1,0.5]];portConstraint=eastwest;direction=south;" parent="j3VYzS4IDnfipmHzvKG--1" vertex="1">
          <mxGeometry y="26" width="400" height="64" as="geometry" />
        </mxCell>
        <mxCell id="j3VYzS4IDnfipmHzvKG--3" value="" style="line;strokeWidth=1;fillColor=none;align=left;verticalAlign=middle;spacingTop=-1;spacingLeft=3;spacingRight=3;rotatable=0;labelPosition=right;points=[];portConstraint=eastwest;" parent="j3VYzS4IDnfipmHzvKG--1" vertex="1">
          <mxGeometry y="90" width="400" height="8" as="geometry" />
        </mxCell>
        <mxCell id="j3VYzS4IDnfipmHzvKG--4" value="+ Socket()&#xa;+ Socket(AddressInfo const &amp;)&#xa;+ Socket(int, AddressInfo const &amp;, bool, bool);&#xa;+ Socket(Socket const &amp;)&#xa;+ ~Socket()&#xa;&#xa;+ getFiledesc(): int&#xa;+ isBlockling(): bool&#xa;+ isReusingAddress(): bool&#xa;&#xa;+ setBlocking(bool): void&#xa;+ setReusingAddress(bool): void&#xa;+ close(): void&#xa;+ setSockOpt(int, int, void *, size_t): void&#xa;&#xa;+ bind(AddressInfo const *): void&#xa;+ connect(AddressInfo const &amp;): void&#xa;+ listen(int): void&#xa;+ accept(): Socket&#xa;&#xa;+ send(stringstream &amp;, size_t, int): ssize_t&#xa;+ recv(stringstream &amp;, size_t, int): ssize_t&#xa;&#xa;+ operator=(Socket const &amp;)" style="text;strokeColor=none;fillColor=none;align=left;verticalAlign=top;spacingLeft=4;spacingRight=4;overflow=hidden;rotatable=0;points=[[0,0.5],[1,0.5]];portConstraint=eastwest;fontStyle=0" parent="j3VYzS4IDnfipmHzvKG--1" vertex="1">
          <mxGeometry y="98" width="400" height="352" as="geometry" />
        </mxCell>
        <mxCell id="j3VYzS4IDnfipmHzvKG--18" value="Network Datas" style="text;align=center;fontStyle=1;verticalAlign=middle;spacingLeft=3;spacingRight=3;strokeColor=none;rotatable=0;points=[[0,0.5],[1,0.5]];portConstraint=eastwest;fontSize=24;" parent="1" vertex="1">
          <mxGeometry x="310" y="20" width="707" height="130" as="geometry" />
        </mxCell>
        <mxCell id="j3VYzS4IDnfipmHzvKG--19" value="Network / Server" style="text;align=center;fontStyle=1;verticalAlign=middle;spacingLeft=3;spacingRight=3;strokeColor=none;rotatable=0;points=[[0,0.5],[1,0.5]];portConstraint=eastwest;fontSize=24;" parent="1" vertex="1">
          <mxGeometry x="-1143.5" y="10" width="707" height="130" as="geometry" />
        </mxCell>
        <mxCell id="j3VYzS4IDnfipmHzvKG--20" value="&lt;abstract&gt;&#xa;Selector" style="swimlane;fontStyle=1;align=center;verticalAlign=top;childLayout=stackLayout;horizontal=1;startSize=40;horizontalStack=0;resizeParent=1;resizeParentMax=0;resizeLast=0;collapsible=1;marginBottom=0;" parent="1" vertex="1">
          <mxGeometry x="-2000" y="230" width="400" height="330" as="geometry" />
        </mxCell>
        <mxCell id="j3VYzS4IDnfipmHzvKG--21" value="- selectorKeys: std::map&lt;FileObj, SelectorKey&gt;" style="text;strokeColor=none;fillColor=none;align=left;verticalAlign=top;spacingLeft=4;spacingRight=4;overflow=hidden;rotatable=0;points=[[0,0.5],[1,0.5]];portConstraint=eastwest;direction=south;" parent="j3VYzS4IDnfipmHzvKG--20" vertex="1">
          <mxGeometry y="40" width="400" height="30" as="geometry" />
        </mxCell>
        <mxCell id="j3VYzS4IDnfipmHzvKG--22" value="" style="line;strokeWidth=1;fillColor=none;align=left;verticalAlign=middle;spacingTop=-1;spacingLeft=3;spacingRight=3;rotatable=0;labelPosition=right;points=[];portConstraint=eastwest;" parent="j3VYzS4IDnfipmHzvKG--20" vertex="1">
          <mxGeometry y="70" width="400" height="8" as="geometry" />
        </mxCell>
        <mxCell id="j3VYzS4IDnfipmHzvKG--23" value="+ Selectort()&#xa;+ Selector(Selector const &amp;)&#xa;+ ~Selector()&#xa;&#xa;+ register(FileObj &amp;, int, void *)&#xa;+ modify(FileObj &amp;, int, void *)&#xa;+ unregister(FileObj): SelectorKey&#xa;+ select(int): SelectorKey[]&#xa;&#xa;+ close(): void&#xa;&#xa;+ getKey(FileObj &amp;): SelectorKey&#xa;+ getMap(): std::map&lt;FileObj, SelectorKey&gt;&#xa;&#xa;+ operator=(Selector const &amp;)" style="text;strokeColor=none;fillColor=none;align=left;verticalAlign=top;spacingLeft=4;spacingRight=4;overflow=hidden;rotatable=0;points=[[0,0.5],[1,0.5]];portConstraint=eastwest;fontStyle=0" parent="j3VYzS4IDnfipmHzvKG--20" vertex="1">
          <mxGeometry y="78" width="400" height="252" as="geometry" />
        </mxCell>
        <mxCell id="j3VYzS4IDnfipmHzvKG--26" value="SelectorKey" style="swimlane;fontStyle=1;align=center;verticalAlign=top;childLayout=stackLayout;horizontal=1;startSize=30;horizontalStack=0;resizeParent=1;resizeParentMax=0;resizeLast=0;collapsible=1;marginBottom=0;" parent="1" vertex="1">
          <mxGeometry x="-2450" y="230" width="400" height="200" as="geometry" />
        </mxCell>
        <mxCell id="j3VYzS4IDnfipmHzvKG--27" value="+ filedesc: int&#xa;+ objet: FileObjet &amp;&#xa;+ events: int&#xa;+ datas: void *&#xa;" style="text;strokeColor=none;fillColor=none;align=left;verticalAlign=top;spacingLeft=4;spacingRight=4;overflow=hidden;rotatable=0;points=[[0,0.5],[1,0.5]];portConstraint=eastwest;direction=south;" parent="j3VYzS4IDnfipmHzvKG--26" vertex="1">
          <mxGeometry y="30" width="400" height="60" as="geometry" />
        </mxCell>
        <mxCell id="j3VYzS4IDnfipmHzvKG--28" value="" style="line;strokeWidth=1;fillColor=none;align=left;verticalAlign=middle;spacingTop=-1;spacingLeft=3;spacingRight=3;rotatable=0;labelPosition=right;points=[];portConstraint=eastwest;" parent="j3VYzS4IDnfipmHzvKG--26" vertex="1">
          <mxGeometry y="90" width="400" height="8" as="geometry" />
        </mxCell>
        <mxCell id="j3VYzS4IDnfipmHzvKG--29" value="+ SelectorKey()&#xa;+ SelectorKey(T &amp;, int, int, void *)&#xa;+ SelectorKey(SelectorKey const &amp;)&#xa;+ ~SelectorKey()&#xa;&#xa;+ operator=(SelectorKey const &amp;)" style="text;strokeColor=none;fillColor=none;align=left;verticalAlign=top;spacingLeft=4;spacingRight=4;overflow=hidden;rotatable=0;points=[[0,0.5],[1,0.5]];portConstraint=eastwest;fontStyle=0" parent="j3VYzS4IDnfipmHzvKG--26" vertex="1">
          <mxGeometry y="98" width="400" height="102" as="geometry" />
        </mxCell>
        <mxCell id="XqV6AA5ABK0mT-hbMeVy-1" value="&lt;interface&gt;&#xa;FileObjet" style="swimlane;fontStyle=3;align=center;verticalAlign=top;childLayout=stackLayout;horizontal=1;startSize=40;horizontalStack=0;resizeParent=1;resizeParentMax=0;resizeLast=0;collapsible=1;marginBottom=0;" parent="1" vertex="1">
          <mxGeometry x="-2910" y="240" width="400" height="100" as="geometry" />
        </mxCell>
        <mxCell id="XqV6AA5ABK0mT-hbMeVy-3" value="" style="line;strokeWidth=1;fillColor=none;align=left;verticalAlign=middle;spacingTop=-1;spacingLeft=3;spacingRight=3;rotatable=0;labelPosition=right;points=[];portConstraint=eastwest;" parent="XqV6AA5ABK0mT-hbMeVy-1" vertex="1">
          <mxGeometry y="40" width="400" height="8" as="geometry" />
        </mxCell>
        <mxCell id="XqV6AA5ABK0mT-hbMeVy-4" value="+ ~FileObjet()&#xa;&#xa;+ getFiledesc(): int" style="text;strokeColor=none;fillColor=none;align=left;verticalAlign=top;spacingLeft=4;spacingRight=4;overflow=hidden;rotatable=0;points=[[0,0.5],[1,0.5]];portConstraint=eastwest;fontStyle=0" parent="XqV6AA5ABK0mT-hbMeVy-1" vertex="1">
          <mxGeometry y="48" width="400" height="52" as="geometry" />
        </mxCell>
        <mxCell id="XqV6AA5ABK0mT-hbMeVy-9" value="" style="endArrow=diamondThin;endFill=0;endSize=24;html=1;rounded=0;entryX=0.999;entryY=0.009;entryDx=0;entryDy=0;entryPerimeter=0;exitX=0.877;exitY=1.003;exitDx=0;exitDy=0;exitPerimeter=0;" parent="1" source="wqd82JeTupFohGKB9hLJ-2" target="j3VYzS4IDnfipmHzvKG--4" edge="1">
          <mxGeometry width="160" relative="1" as="geometry">
            <mxPoint x="-80" y="330" as="sourcePoint" />
            <mxPoint x="30" y="330" as="targetPoint" />
            <Array as="points">
              <mxPoint x="-70" y="345" />
            </Array>
          </mxGeometry>
        </mxCell>
        <mxCell id="XqV6AA5ABK0mT-hbMeVy-11" value="" style="endArrow=diamondThin;endFill=0;endSize=24;html=1;rounded=0;" parent="1" edge="1">
          <mxGeometry width="160" relative="1" as="geometry">
            <mxPoint x="-2450" y="301" as="sourcePoint" />
            <mxPoint x="-2510" y="301" as="targetPoint" />
            <Array as="points" />
          </mxGeometry>
        </mxCell>
        <mxCell id="XqV6AA5ABK0mT-hbMeVy-13" value="" style="endArrow=diamondThin;endFill=0;endSize=24;html=1;rounded=0;" parent="1" edge="1">
          <mxGeometry width="160" relative="1" as="geometry">
            <mxPoint x="-2000.0000000000005" y="300" as="sourcePoint" />
            <mxPoint x="-2050" y="300" as="targetPoint" />
            <Array as="points" />
          </mxGeometry>
        </mxCell>
        <mxCell id="XqV6AA5ABK0mT-hbMeVy-14" value="Selector / Multiplexing" style="text;align=center;fontStyle=1;verticalAlign=middle;spacingLeft=3;spacingRight=3;strokeColor=none;rotatable=0;points=[[0,0.5],[1,0.5]];portConstraint=eastwest;fontSize=24;" parent="1" vertex="1">
          <mxGeometry x="-2593.5" y="10" width="707" height="130" as="geometry" />
        </mxCell>
        <mxCell id="XqV6AA5ABK0mT-hbMeVy-15" value="TCPServer" style="swimlane;fontStyle=1;align=center;verticalAlign=top;childLayout=stackLayout;horizontal=1;startSize=30;horizontalStack=0;resizeParent=1;resizeParentMax=0;resizeLast=0;collapsible=1;marginBottom=0;" parent="1" vertex="1">
          <mxGeometry x="-990" y="240" width="400" height="270" as="geometry" />
        </mxCell>
        <mxCell id="XqV6AA5ABK0mT-hbMeVy-16" value="- selector: Selector&#xa;- server: Socket&#xa;- clients: std::vector&lt;HandleRequest&gt;" style="text;strokeColor=none;fillColor=none;align=left;verticalAlign=top;spacingLeft=4;spacingRight=4;overflow=hidden;rotatable=0;points=[[0,0.5],[1,0.5]];portConstraint=eastwest;direction=south;" parent="XqV6AA5ABK0mT-hbMeVy-15" vertex="1">
          <mxGeometry y="30" width="400" height="50" as="geometry" />
        </mxCell>
        <mxCell id="XqV6AA5ABK0mT-hbMeVy-17" value="" style="line;strokeWidth=1;fillColor=none;align=left;verticalAlign=middle;spacingTop=-1;spacingLeft=3;spacingRight=3;rotatable=0;labelPosition=right;points=[];portConstraint=eastwest;" parent="XqV6AA5ABK0mT-hbMeVy-15" vertex="1">
          <mxGeometry y="80" width="400" height="8" as="geometry" />
        </mxCell>
        <mxCell id="XqV6AA5ABK0mT-hbMeVy-22" value="" style="endArrow=diamondThin;endFill=1;endSize=24;html=1;rounded=0;" parent="XqV6AA5ABK0mT-hbMeVy-15" edge="1">
          <mxGeometry width="160" relative="1" as="geometry">
            <mxPoint x="500" y="100" as="sourcePoint" />
            <mxPoint x="400" y="100" as="targetPoint" />
            <Array as="points" />
          </mxGeometry>
        </mxCell>
        <mxCell id="XqV6AA5ABK0mT-hbMeVy-18" value="+ TCPServer()&#xa;+ TCPServer(AddressInfo &amp;)&#xa;+ TCPServer(TCPServer const &amp;)&#xa;+ ~TCPServer()&#xa;&#xa;+ getFiledesc(): int&#xa;&#xa;+ serverBind(): void&#xa;+ serverActivate(): void&#xa;+ handleRequest(): void&#xa;+ serverForever(int): void&#xa;+ shutdown()" style="text;strokeColor=none;fillColor=none;align=left;verticalAlign=top;spacingLeft=4;spacingRight=4;overflow=hidden;rotatable=0;points=[[0,0.5],[1,0.5]];portConstraint=eastwest;fontStyle=0" parent="XqV6AA5ABK0mT-hbMeVy-15" vertex="1">
          <mxGeometry y="88" width="400" height="182" as="geometry" />
        </mxCell>
        <mxCell id="XqV6AA5ABK0mT-hbMeVy-24" value="" style="endArrow=diamondThin;endFill=1;endSize=24;html=1;rounded=0;entryX=1.009;entryY=0.086;entryDx=0;entryDy=0;entryPerimeter=0;exitX=-0.01;exitY=-0.007;exitDx=0;exitDy=0;exitPerimeter=0;" parent="1" source="XqV6AA5ABK0mT-hbMeVy-18" target="j3VYzS4IDnfipmHzvKG--23" edge="1">
          <mxGeometry width="160" relative="1" as="geometry">
            <mxPoint x="-990" y="340" as="sourcePoint" />
            <mxPoint x="-1090" y="340" as="targetPoint" />
            <Array as="points" />
          </mxGeometry>
        </mxCell>
        <mxCell id="XqV6AA5ABK0mT-hbMeVy-25" value="&lt;interface&gt;&#xa;    HandleRequest" style="swimlane;fontStyle=3;align=center;verticalAlign=top;childLayout=stackLayout;horizontal=1;startSize=40;horizontalStack=0;resizeParent=1;resizeParentMax=0;resizeLast=0;collapsible=1;marginBottom=0;" parent="1" vertex="1">
          <mxGeometry x="-1520" y="390" width="400" height="120" as="geometry" />
        </mxCell>
        <mxCell id="XqV6AA5ABK0mT-hbMeVy-26" value="" style="line;strokeWidth=1;fillColor=none;align=left;verticalAlign=middle;spacingTop=-1;spacingLeft=3;spacingRight=3;rotatable=0;labelPosition=right;points=[];portConstraint=eastwest;" parent="XqV6AA5ABK0mT-hbMeVy-25" vertex="1">
          <mxGeometry y="40" width="400" height="8" as="geometry" />
        </mxCell>
        <mxCell id="XqV6AA5ABK0mT-hbMeVy-27" value="+ ~HandleRequest()&#xa;+ setup()&#xa;+ handle()&#xa;+ finish()" style="text;strokeColor=none;fillColor=none;align=left;verticalAlign=top;spacingLeft=4;spacingRight=4;overflow=hidden;rotatable=0;points=[[0,0.5],[1,0.5]];portConstraint=eastwest;fontStyle=0" parent="XqV6AA5ABK0mT-hbMeVy-25" vertex="1">
          <mxGeometry y="48" width="400" height="72" as="geometry" />
        </mxCell>
        <mxCell id="XqV6AA5ABK0mT-hbMeVy-28" value="" style="endArrow=block;endSize=16;endFill=0;html=1;rounded=0;entryX=0.44;entryY=1.064;entryDx=0;entryDy=0;entryPerimeter=0;exitX=0.001;exitY=0.159;exitDx=0;exitDy=0;exitPerimeter=0;" parent="1" source="XqV6AA5ABK0mT-hbMeVy-27" target="XqV6AA5ABK0mT-hbMeVy-4" edge="1">
          <mxGeometry width="160" relative="1" as="geometry">
            <mxPoint x="-1580" y="450" as="sourcePoint" />
            <mxPoint x="-1610" y="689.17" as="targetPoint" />
            <Array as="points">
              <mxPoint x="-1580" y="449" />
              <mxPoint x="-1580" y="600" />
              <mxPoint x="-2330" y="600" />
              <mxPoint x="-2734" y="600" />
            </Array>
          </mxGeometry>
        </mxCell>
        <mxCell id="XqV6AA5ABK0mT-hbMeVy-29" value="" style="endArrow=diamondThin;endFill=1;endSize=24;html=1;rounded=0;entryX=1;entryY=0.5;entryDx=0;entryDy=0;exitX=0;exitY=0.5;exitDx=0;exitDy=0;" parent="1" source="XqV6AA5ABK0mT-hbMeVy-18" target="XqV6AA5ABK0mT-hbMeVy-27" edge="1">
          <mxGeometry width="160" relative="1" as="geometry">
            <mxPoint x="-1080" y="390" as="sourcePoint" />
            <mxPoint x="-1196.4000000000005" y="680.002" as="targetPoint" />
            <Array as="points">
              <mxPoint x="-1040" y="419" />
              <mxPoint x="-1040" y="474" />
              <mxPoint x="-1090" y="474" />
            </Array>
          </mxGeometry>
        </mxCell>
      </root>
    </mxGraphModel>
  </diagram>
</mxfile>
